# xmcd
#
# Track frame offsets: 
#        150
#        12295
#        26187
#        45207
#        62539
#        80632
#        92390
#        105357
#        119115
#        132465
#        149522
#        168259
#        183020
#        197672
#        213965
#        230737
#        244355
#        260012
#        273450
#
# Disc length: 3844 seconds
#
# Revision: 3
# Processed by: cddbd v1.5.2PL0 Copyright (c) Steve Scherf et al.
# Submitted via: ExactAudioCopy v0.99pb5
#
DISCID=0e0f0213
DTITLE=Various Artist - Hott Country 043
DYEAR=1999
DGENRE=Country
TTITLE0=Yankee Grey - All Things Considered
TTITLE1=Andy Griggs - I'll Go Crazy
TTITLE2=Eleanor McEvoy - Please Heart, Your Killing Me
TTITLE3=Lisa Brokop - Cool Summer Night
TTITLE4=Debbie Nelson - July 9th '85
TTITLE5=David Allen Coe - Drink Canada Dry
TTITLE6=Michael Peterson - Sure Feels Real Good
TTITLE7=Rockin' Highliners - Oh My!
TTITLE8=Miranda Jackson - I'm The Good Time
TTITLE9=Colin Linden - Ride With Me
TTITLE10=Charlie Robison - You're Not The Best
TTITLE11=Linda Davis - From The Inside Out
TTITLE12=Rebecca Lynn Howard - When My Dreams Come True
TTITLE13=Lee Roy Parnell - She Won't Be Lonely Long
TTITLE14=Anita Cochran - For Crying Out Loud
TTITLE15=Johner Brothers - Still In Love With You
TTITLE16=Alison Krauss - Forget About It
TTITLE17=Tim Herman - Bridge That Just Won't Burn
TTITLE18=Steve Wariner - I'm Already Taken
EXTD=
EXTT0=
EXTT1=
EXTT2=
EXTT3=
EXTT4=
EXTT5=
EXTT6=
EXTT7=
EXTT8=
EXTT9=
EXTT10=
EXTT11=
EXTT12=
EXTT13=
EXTT14=
EXTT15=
EXTT16=
EXTT17=
EXTT18=
PLAYORDER=
